<svg width="297" height="298" viewBox="0 0 297 298" fill="none" xmlns="http://www.w3.org/2000/svg">
<path d="M151.395 238.418C140.451 220.439 120.127 207.932 76.3524 195.425C55.2466 189.171 35.7042 179.009 20.0703 170.411L147.487 297.827C152.177 281.411 159.212 250.925 151.395 238.418Z" fill="#009738"/>
<path d="M70.8839 146.959C113.095 136.015 143.582 79.733 168.596 73.4794C193.61 67.2258 197.519 95.3669 215.498 90.6767C215.498 90.6767 189.702 93.0218 211.589 143.05C223.315 169.628 222.533 201.678 219.406 225.128L296.012 148.522L147.49 0L0.53125 148.522C10.6933 150.867 38.0527 155.557 70.8839 146.959Z" fill="#273475"/>
<path d="M181.117 89.894C181.117 93.8025 177.991 96.9293 174.082 96.9293C170.174 96.9293 167.047 93.8025 167.047 89.894C167.047 85.9856 170.174 82.8588 174.082 82.8588C177.991 82.8588 181.117 85.9856 181.117 89.894Z" fill="#000003"/>
</svg>
